HIERARCHY
ROOT Hips
{
  OFFSET -187.679 86.5976 -156.378
  CHANNELS 6 Xposition Yposition Zposition Zrotation Xrotation Yrotation
  JOINT LeftUpLeg
  {
    OFFSET 8.64259 1.95398 -2.38835
    CHANNELS 3 Zrotation Xrotation Yrotation
    JOINT LeftLeg
    {
      OFFSET 43.7702 0 0
      CHANNELS 3 Zrotation Xrotation Yrotation
      JOINT LeftFoot
      {
        OFFSET 40.6238 0 0
        CHANNELS 3 Zrotation Xrotation Yrotation
        JOINT LeftToeBase
        {
          OFFSET 12.7242 0 0
          CHANNELS 3 Zrotation Xrotation Yrotation
          End Site
          {
            OFFSET 0 0 0
          }
        }
      }
    }
  }
  JOINT RightUpLeg
  {
    OFFSET -8.2249 1.95398 -2.59336
    CHANNELS 3 Zrotation Xrotation Yrotation
    JOINT RightLeg
    {
      OFFSET 43.5653 0 0
      CHANNELS 3 Zrotation Xrotation Yrotation
      JOINT RightFoot
      {
        OFFSET 40.6238 0 0
        CHANNELS 3 Zrotation Xrotation Yrotation
        JOINT RightToeBase
        {
          OFFSET 12.7242 0 0
          CHANNELS 3 Zrotation Xrotation Yrotation
          End Site
          {
            OFFSET 0 0 0
          }
        }
      }
    }
  }
  JOINT Spine
  {
    OFFSET 0.165834 0.87714 6.61349
    CHANNELS 3 Zrotation Xrotation Yrotation
    JOINT Spine1
    {
      OFFSET 7.38963 1.71661e-005 0
      CHANNELS 3 Zrotation Xrotation Yrotation
      JOINT Spine2
      {
        OFFSET 11.9445 1.14441e-005 0
        CHANNELS 3 Zrotation Xrotation Yrotation
        JOINT Spine3
        {
          OFFSET 14.7254 4.19617e-005 0
          CHANNELS 3 Zrotation Xrotation Yrotation
          JOINT Spine4
          {
            OFFSET 10.9679 0 0
            CHANNELS 3 Zrotation Xrotation Yrotation
            JOINT RightShoulder
            {
              OFFSET 2.46616 -1.6653 3.69651
              CHANNELS 3 Zrotation Xrotation Yrotation
              JOINT RightArm
              {
                OFFSET 13.0012 0 0
                CHANNELS 3 Zrotation Xrotation Yrotation
                JOINT RightForeArm
                {
                  OFFSET 28.7848 1.52588e-005 0
                  CHANNELS 3 Zrotation Xrotation Yrotation
                  JOINT RightHand
                  {
                    OFFSET 26.5688 1.52588e-005 0
                    CHANNELS 3 Zrotation Xrotation Yrotation
                    End Site
                    {
                      OFFSET 0 0 0
                    }
                  }
                }
              }
            }
            JOINT LeftShoulder
            {
              OFFSET 2.38034 -1.29275 -3.7523
              CHANNELS 3 Zrotation Xrotation Yrotation
              JOINT LeftArm
              {
                OFFSET 16.3182 6.10352e-005 0
                CHANNELS 3 Zrotation Xrotation Yrotation
                JOINT LeftForeArm
                {
                  OFFSET 27.0901 0 0
                  CHANNELS 3 Zrotation Xrotation Yrotation
                  JOINT LeftHand
                  {
                    OFFSET 24.5451 1.52588e-005 0
                    CHANNELS 3 Zrotation Xrotation Yrotation
                    End Site
                    {
                      OFFSET 0 0 0
                    }
                  }
                }
              }
            }
            JOINT Neck
            {
              OFFSET 5.0226 -0.0266342 0
              CHANNELS 3 Zrotation Xrotation Yrotation
              JOINT Head
              {
                OFFSET 6.69363 2.86102e-005 0
                CHANNELS 3 Zrotation Xrotation Yrotation
                End Site
                {
                  OFFSET 0 0 0
                }
              }
            }
          }
        }
      }
    }
  }
}
MOTION
Frames:	13
Frame Time:	0.0416667
-315.461 92.1246 303.125 -102.928 -40.923 -99.4505 -171.591 4.17035 91.685 -47.511 29.0409 5.60216 84.8851 12.4066 0.839714 11.4124 -6.01714 -2.00303 176.721 19.5688 89.1808 -22.8071 4.15011 0.300367 52.8662 -0.527236 0.738596 23.0151 -1.15791 0.765924 0.775815 8.55634 -90.2136 9.76495 1.44987 -0.538682 -1.90532 1.42476 -0.601979 -24.4469 1.54472 -0.0779218 -4.43427 1.5447 -0.077943 88.9329 -47.1797 -102.982 24.7888 -16.3067 -7.13673 -14.5318 -3.66797 -13.0895 -11.02 -0.137198 -3.69149 -91.5486 -45.7812 75.5893 -15.0076 9.58418 -28.3224 15.6472 2.84613 -25.5468 -1.28921 -0.103769 -5.98883 4.92526 -0.789798 -8.95143 7.17175 0.868621 0.141028 
-312.356 93.9043 301.242 -106.328 -40.378 -102.427 -172.197 0.446749 90.2276 -41.0904 29.2262 6.28276 80.1989 10.2223 1.37937 11.9516 -5.83288 -1.93748 172.888 17.305 88.1352 -31.6487 16.4241 3.15466 58.4528 -1.66804 -0.301821 23.0617 -1.47539 1.72079 0.382851 8.42559 -89.6521 10.018 0.921258 0.615004 -1.65284 0.947414 0.573851 -24.1883 0.693847 0.863444 -4.17562 0.693847 0.863448 85.4219 -50.6942 -107.359 22.9185 -18.8174 -8.60647 -14.6727 -5.75347 -14.6019 -12.431 -0.0875526 -4.38146 -87.8677 -41.18 80.3862 -16.9257 5.35899 -19.7223 15.574 -0.719891 -36.8218 3.01625 -0.0150127 -2.45078 -2.30581 0.534756 -12.1227 9.08658 2.2205 2.07311 
-309.504 95.1436 299.837 -108.996 -40.4497 -104.688 -173.585 -1.89027 87.4438 -36.4475 28.7394 8.16542 77.1238 8.82276 2.17066 9.725 -7.0228 -1.41571 168.976 13.5859 85.4244 -49.5549 13.048 3.17037 63.2186 -2.56823 0.509145 25.5776 -1.2279 2.28339 0.283208 8.30574 -89.8099 10.2637 0.651268 0.326385 -1.40712 0.665017 0.2974 -23.9431 0.523046 0.507029 -3.93046 0.52307 0.507033 88.6123 -47.5231 -103.369 21.6122 -22.6829 -12.8649 -16.9761 -14.2772 -18.8162 -9.65557 -0.0325856 -4.83727 -87.8267 -43.1206 80.8676 -19.4532 5.41022 -8.98506 11.8481 -5.43864 -37.066 3.93786 -0.0355357 -3.29269 -8.85561 0.825119 -5.59515 9.45633 1.15915 -0.515655 
-307.111 95.5293 297.852 -109.235 -40.879 -105.533 -174.338 -1.11447 86.4773 -34.2777 29.3718 8.14665 74.3748 7.57772 2.08306 10.3781 -7.27735 -0.420989 166.624 5.73297 81.9419 -60.8864 8.20669 1.04711 63.9494 -2.57676 0.249761 25.3692 -1.11038 1.82639 0.361442 7.99478 -89.8515 10.8838 0.788299 0.219697 -0.786961 0.797217 0.184774 -23.3236 0.685808 0.446461 -3.31099 0.685827 0.446457 87.4344 -45.4981 -105.839 19.6476 -21.5484 -13.9197 -18.0622 -14.8445 -20.4133 -10.8071 -0.135283 -3.68143 -86.6718 -45.6178 83.202 -23.4609 10.3665 1.83012 10.0806 -7.9991 -33.3117 1.78108 -0.0408336 -2.87444 -12.8518 0.635329 -1.92928 8.09852 0.409074 -2.93052 
-304.406 95.3742 295.087 -110.424 -39.9465 -107.49 -174.995 0.206387 85.3351 -33.5484 28.6614 7.28418 72.0187 6.45815 1.88543 10.557 -7.31545 -0.2038 165.325 -6.85893 77.5949 -57.0105 0.644462 -1.5579 63.5871 -2.51188 0.181064 25.6735 -1.37388 2.82444 0.789961 8.00598 -89.7328 10.8598 1.6964 0.372588 -0.810036 1.71116 0.297539 -23.3521 1.50599 0.865299 -3.33948 1.50599 0.865301 87.3028 -43.604 -106.65 17.3679 -22.4999 -17.0154 -16.9412 -14.8655 -18.5254 -9.86261 -0.0559094 -4.54402 -86.276 -48.8234 84.3481 -26.6382 13.2337 9.94969 7.40062 -11.9494 -22.4802 0.840383 -0.0501331 -2.88228 -13.4162 -0.74795 -1.43193 7.14988 -1.03557 -3.71657 
-299.787 94.5734 288.014 -103.93 -40.0515 -99.7619 -174.2 12.6955 88.22 -35.044 30.1807 5.81779 68.744 4.99003 1.83611 10.1489 -7.83133 0.425604 170.796 -11.8466 85.3201 -43.5051 -3.56618 -1.98906 65.8795 -3.07904 -0.482992 29.0617 -0.823686 3.28993 1.21216 7.50306 -90.0593 11.8787 2.38322 -0.362238 0.209782 2.36495 -0.466828 -22.3426 2.38186 0.371165 -2.32994 2.38187 0.371173 88.2617 -42.8319 -105.318 14.4828 -21.6411 -22.732 -17.6124 -17.748 -18.6149 -8.85329 -0.0505736 -5.11479 -87.1729 -52.2435 83.5559 -29.9161 18.5168 15.1597 4.11094 -27.8753 -5.40387 0.15969 -0.0500641 -2.16335 -11.3634 -1.86776 -0.323047 5.87379 -2.23762 -5.05822 
-294.062 94.3218 282.55 -104.872 -34.8764 -101.861 -175.992 10.4307 88.025 -24.9115 24.628 5.56969 61.8005 1.62315 -0.486064 12.022 -8.01877 2.40351 168.554 -15.6804 80.1906 -31.9657 -11.9901 -3.74677 72.6138 -5.17902 -1.87496 37.6355 0.0716025 6.12434 1.5423 8.11864 -89.8145 10.6391 3.15703 0.0776551 -1.02798 3.15736 -0.0615125 -23.592 2.98755 1.02374 -3.57934 2.98756 1.02374 88.4419 -43.1763 -104.915 10.4438 -18.1952 -28.6534 -20.8441 -18.2365 -23.8486 -14.5266 -0.441313 -1.36591 -87.9353 -52.3036 82.4504 -35.5032 12.8616 17.0963 7.40741 -26.5002 -0.186389 -5.37405 -0.17365 -0.762038 -6.45903 -0.973137 1.93691 5.78366 -1.44619 -4.23992 
-287.828 94.3914 274.607 -103.254 -39.6453 -97.8519 -175.698 15.4071 92.678 -19.2515 19.8952 4.46263 60.8251 1.27182 -1.5289 12.6105 -9.45932 5.65942 171.745 -11.561 87.6985 -28.3871 -5.21862 0.206934 77.3107 -6.33773 -0.605256 30.4851 -1.04704 4.81963 0.948945 8.33817 -90.2034 10.2027 1.7978 -0.562513 -1.46731 1.77131 -0.641115 -24.0118 1.88373 0.00398209 -3.99916 1.88374 0.00397204 87.4655 -46.1656 -105.59 6.81029 -15.8763 -27.3128 -25.605 -16.3069 -33.3921 -15.3172 -0.627273 -0.272525 -89.0995 -49.6192 80.2217 -36.9069 19.542 12.7672 5.86332 -20.2036 -3.03673 -6.20865 -0.213288 -0.296869 -1.41175 -0.165157 0.393062 5.83827 -0.290199 -1.17578 
-282.66 95.7538 268.992 -107.339 -41.8089 -105.696 -174.398 13.7501 88.3904 -28.0261 2.47342 1.229 62.6331 2.18042 -1.20866 13.0348 -7.66549 2.59562 169.736 -7.59207 83.6126 -31.2225 -4.6143 0.0217167 76.1301 -5.80399 -0.833823 28.1415 -1.21385 3.80806 0.518946 8.84671 -89.7011 9.17776 1.16887 0.508458 -2.49273 1.19012 0.45651 -25.0302 0.962024 0.836259 -5.01753 0.962009 0.836255 87.4103 -47.5889 -105.252 11.4797 -15.2489 -18.8027 -24.4934 -16.4006 -30.1326 -16.2995 -0.748108 0.32948 -89.6948 -46.5767 78.6628 -28.9706 24.9885 0.895066 6.55017 -14.4185 -3.50756 -1.87019 -0.0759005 -1.71395 -2.88009 -0.33429 -3.54514 4.89229 0.112317 0.539107 
-279.182 96.3582 264.406 -103.194 -44.0482 -102.371 -171.24 15.9174 91.2948 -47.7353 14.5655 1.37959 67.6739 4.27108 0.45218 12.7467 -7.86508 2.72596 172.866 -1.06475 87.2025 -30.9009 -0.793424 0.00511913 73.2324 -4.56541 -0.0860433 26.0445 -1.34387 2.94395 0.240835 8.30957 -89.8008 10.2536 0.570848 0.346054 -1.41731 0.585512 0.32059 -23.9527 0.440441 0.501614 -3.9401 0.440462 0.501623 88.6684 -46.4909 -103.588 23.0007 -17.2474 -8.08041 -16.7773 -10.305 -17.4125 -12.8647 -0.102943 -4.13113 -89.2861 -44.8639 78.9154 -20.8766 18.8296 -7.69278 7.53884 -12.0139 -11.9 1.58261 -9.56826e-005 -1.68341 -7.91144 0.546923 -3.05228 4.99616 0.838605 1.01424 
-275.676 96.411 261.352 -103.394 -44.1362 -102.381 -170.416 5.75802 94.9046 -56.5034 20.9737 4.78043 68.5054 5.1898 2.03282 11.8789 -7.77775 1.805 173.291 2.40607 87.3986 -31.7758 -1.37195 -0.0267796 71.8261 -4.09004 -0.420095 24.7191 -1.48553 2.62824 -0.114582 8.10392 -89.9403 10.6671 -0.200662 0.136693 -1.00383 -0.194449 0.14539 -23.5392 -0.232466 0.0700594 -3.52652 -0.232455 0.070069 89.8187 -46.428 -101.775 30.3111 -19.4717 1.01481 -13.3389 -10.014 -9.28402 -11.7524 -0.0197531 -4.97271 -89.3629 -44.1956 78.6392 -18.145 9.81782 -12.6291 8.91111 -9.92947 -21.2122 2.50457 -0.0341231 -2.87929 -11.29 2.11871 0.366716 4.43998 2.20996 1.73746 
-271.569 96.1237 258.337 -103.435 -44.9826 -101.568 -170.147 -4.21329 97.1421 -53.9386 24.009 8.44341 66.5451 4.25112 1.4583 12.3574 -6.18188 -0.92946 174.049 6.35452 88.3005 -32.6886 -0.423958 0.09034 69.5488 -3.40176 -0.167667 24.0591 -1.51103 2.34508 -0.611655 8.01428 -90.1464 10.8451 -1.28544 -0.17084 -0.825168 -1.29169 -0.114102 -23.3647 -1.17465 -0.549315 -3.35202 -1.17464 -0.54932 91.0095 -45.6748 -100.052 35.5454 -16.7791 7.81454 -13.7239 -11.2689 -9.1003 -9.51005 -0.0292941 -4.8694 -89.1013 -43.0212 78.7865 -19.4378 3.27137 -19.3419 11.5538 -5.29153 -24.6385 1.45629 -0.0902904 -4.4541 -13.3484 3.93512 2.41465 4.1445 4.00762 1.97666 
-266.057 95.659 254.777 -102.264 -47.684 -100.681 -169.498 -10.5736 98.4959 -45.0465 30.6987 10.5815 66.8704 4.02267 -0.600469 14.1748 -6.2612 0.799705 174.661 11.8248 88.1338 -32.5873 0.937606 0.117388 66.126 -2.20545 -0.480748 22.8152 -1.64488 2.08125 -1.19288 7.89366 -90.2003 11.0869 -2.46737 -0.159947 -0.581704 -2.47201 -0.0511345 -23.1338 -2.30517 -0.894491 -3.12111 -2.30516 -0.894488 90.5247 -46.0633 -100.739 37.543 -11.2534 10.938 -15.8573 -9.07603 -11.8929 -8.44662 -0.142651 -3.21021 -88.026 -41.2973 80.1555 -20.3107 3.72016 -24.6762 15.5449 1.5707 -27.9834 0.216526 -0.092182 -4.42837 -13.4325 4.74847 3.21421 3.45033 4.77259 1.55082 
